<?xml version="1.0"?>
<svg xmlns="http://www.w3.org/2000/svg" xmlns:xlink="http://www.w3.org/1999/xlink" xmlns:svgjs="http://svgjs.com/svgjs" version="1.1" width="512" height="512" x="0" y="0" viewBox="0 0 512 512" style="enable-background:new 0 0 512 512" xml:space="preserve" class=""><g>
<g xmlns="http://www.w3.org/2000/svg">
	<g>
		<path d="M489.89,243.143v0.001l-85.097-123.779c-7.598-11.051-19.614-18.092-32.969-19.317    c-13.364-1.229-26.452,3.51-35.933,12.992l-54.498,54.498l21.213,21.213l54.498-54.498c4.327-4.327,9.359-4.571,11.978-4.33    c2.616,0.24,7.522,1.396,10.99,6.439l73.413,106.783H271v17.086l1.88,12.914h-33.76L241,260.23v-17.086H58.515l73.413-106.782    c3.468-5.043,8.374-6.199,10.99-6.439c2.617-0.241,7.65,0.004,11.978,4.331l54.498,54.498l21.213-21.213l-54.498-54.498    c-9.481-9.482-22.581-14.217-35.933-12.992c-13.354,1.226-25.371,8.267-32.969,19.318L22.11,243.144H0v30h22.004l10.746,74.681    c2.568,17.854,11.49,34.191,25.123,46.002s31.074,18.316,49.111,18.316h47.031c18.037,0,35.479-6.505,49.111-18.316    c13.632-11.811,22.555-28.148,25.12-45.978l6.507-44.706h42.492l6.504,44.681c2.568,17.854,11.49,34.191,25.123,46.002    c13.633,11.811,31.074,18.316,49.111,18.316h47.031c18.037,0,35.479-6.505,49.111-18.316    c13.632-11.811,22.555-28.148,25.123-46.002l10.746-74.681H512v-30H489.89z M86.692,377.238    c-12.621-6.443-21.977-18.682-24.197-33.377l70.718-70.718h57.574L86.692,377.238z M337.033,376.898    c-12.376-6.577-21.493-18.778-23.592-33.37l-0.078-0.534l69.851-69.85h57.574L337.033,376.898z" fill="#ffffff" data-original="#000000" style="" class=""/>
	</g>
</g>
<g xmlns="http://www.w3.org/2000/svg">
</g>
<g xmlns="http://www.w3.org/2000/svg">
</g>
<g xmlns="http://www.w3.org/2000/svg">
</g>
<g xmlns="http://www.w3.org/2000/svg">
</g>
<g xmlns="http://www.w3.org/2000/svg">
</g>
<g xmlns="http://www.w3.org/2000/svg">
</g>
<g xmlns="http://www.w3.org/2000/svg">
</g>
<g xmlns="http://www.w3.org/2000/svg">
</g>
<g xmlns="http://www.w3.org/2000/svg">
</g>
<g xmlns="http://www.w3.org/2000/svg">
</g>
<g xmlns="http://www.w3.org/2000/svg">
</g>
<g xmlns="http://www.w3.org/2000/svg">
</g>
<g xmlns="http://www.w3.org/2000/svg">
</g>
<g xmlns="http://www.w3.org/2000/svg">
</g>
<g xmlns="http://www.w3.org/2000/svg">
</g>
</g></svg>
