<?xml version="1.0" encoding="iso-8859-1"?>
<!-- Generator: Adobe Illustrator 19.0.0, SVG Export Plug-In . SVG Version: 6.00 Build 0)  -->
<svg version="1.1" id="Capa_1" xmlns="http://www.w3.org/2000/svg" xmlns:xlink="http://www.w3.org/1999/xlink" x="0px" y="0px"
	 viewBox="0 0 512 512" style="enable-background:new 0 0 512 512;" xml:space="preserve">
<polygon style="fill:#FFE477;" points="495.064,256 400.194,302.861 449.4,396.552 345.064,378.653 329.883,483.416 256,407.565 
	182.118,483.416 166.935,378.653 62.6,396.552 111.806,302.861 16.936,256 111.806,209.139 62.6,115.448 166.935,133.347 
	182.117,28.584 256,104.434 329.882,28.584 345.064,133.347 449.4,115.448 400.194,209.139 "/>
<circle style="fill:#FFB655;" cx="255.998" cy="255.998" r="151.571"/>
<path style="fill:#787680;" d="M161.776,298.107L161.776,298.107c-19.211,0-34.786-15.574-34.786-34.785v-39.549
	c0-10.929,8.86-19.787,19.787-19.787h69.546c10.929,0,19.787,8.86,19.787,19.787l0,0
	C236.112,264.826,202.83,298.107,161.776,298.107z M385.009,263.321v-39.549c0-10.929-8.86-19.787-19.787-19.787h-69.546
	c-10.929,0-19.787,8.86-19.787,19.787l0,0c0,41.054,33.28,74.334,74.334,74.334l0,0
	C369.435,298.107,385.009,282.533,385.009,263.321z"/>
<g>
	<polygon style="fill:#FFB655;" points="286.002,104.434 333.768,55.396 329.882,28.584 271.001,89.034 	"/>
	<polygon style="fill:#FFB655;" points="196.937,133.347 208.234,55.396 182.117,28.584 167.663,128.325 	"/>
	<polygon style="fill:#FFB655;" points="375.066,133.347 446.428,121.105 449.4,115.448 374.339,128.325 	"/>
	<polygon style="fill:#FFB655;" points="375.066,378.653 374.339,383.675 449.4,396.552 446.428,390.896 	"/>
	<polygon style="fill:#FFB655;" points="286.002,407.566 271.001,422.966 329.883,483.416 333.768,456.604 	"/>
	<polygon style="fill:#FFB655;" points="196.938,378.653 167.663,383.675 182.117,483.416 208.234,456.604 	"/>
	<polygon style="fill:#FFB655;" points="95.574,390.896 141.808,302.861 46.938,256 141.808,209.139 95.574,121.105 62.6,115.448 
		111.806,209.139 16.936,256 111.806,302.861 62.6,396.552 	"/>
</g>
<path style="fill:#FF7956;" d="M134.436,256c0-78.645,59.899-143.294,136.565-150.827c-4.935-0.485-9.939-0.739-15.001-0.739
	c-83.707,0-151.566,67.859-151.566,151.566S172.292,407.566,256,407.566c5.062,0,10.066-0.254,15.001-0.739
	C194.337,399.294,134.436,334.645,134.436,256z"/>
<g>
	<path style="fill:#57565C;" d="M156.993,263.321v-39.549c0-10.929,8.86-19.787,19.787-19.787h-30.002
		c-10.929,0-19.787,8.859-19.787,19.787v39.549c0,19.211,15.574,34.785,34.785,34.785l0,0c6.163,0,12.146-0.764,17.872-2.177
		C166.419,291.005,156.993,278.266,156.993,263.321z"/>
	<path style="fill:#57565C;" d="M305.891,223.772c0-10.929,8.86-19.787,19.787-19.787h-30.002c-10.929,0-19.787,8.859-19.787,19.787
		l0,0c0,41.054,33.28,74.334,74.334,74.334l0,0c4.267,0,8.353-0.772,12.13-2.177C329.934,287.925,305.891,258.663,305.891,223.772z"
		/>
</g>
<path d="M256,96.934c-87.709,0-159.066,71.357-159.066,159.066S168.291,415.066,256,415.066S415.066,343.709,415.066,256
	S343.709,96.934,256,96.934z M256,111.935c72.353,0,132.419,53.615,142.558,123.201h-6.048v-11.364
	c0-15.047-12.242-27.288-27.288-27.288H146.778c-15.046,0-27.288,12.241-27.288,27.288v11.364h-6.048
	C123.58,165.55,183.647,111.935,256,111.935z M269.175,235.137h-26.349c0.518-3.715,0.786-7.509,0.786-11.364
	c0-4.417-1.055-8.593-2.926-12.287h30.629c-1.871,3.695-2.926,7.87-2.926,12.287C268.388,227.627,268.656,231.421,269.175,235.137z
	 M228.611,223.772c0,36.853-29.981,66.834-66.834,66.834l0,0c-15.045,0-27.285-12.24-27.285-27.285v-39.549
	c0-6.774,5.512-12.287,12.287-12.287h69.546C223.099,211.485,228.611,216.997,228.611,223.772z M295.676,211.485h69.546
	c6.774,0,12.287,5.512,12.287,12.287v39.549c0,15.045-12.24,27.285-27.286,27.285c-36.853,0-66.834-29.981-66.834-66.834
	C283.389,216.997,288.901,211.485,295.676,211.485z M256,400.065c-79.438,0-144.065-64.628-144.065-144.065
	c0-1.963,0.04-3.918,0.118-5.862h7.437v13.184c0,23.317,18.969,42.286,42.287,42.286c35.904,0,66.481-23.242,77.477-55.47h33.49
	c10.997,32.228,41.574,55.47,77.478,55.47c23.317,0,42.286-18.969,42.286-42.286v-13.184h7.437c0.078,1.945,0.118,3.899,0.118,5.862
	C400.065,335.438,335.438,400.065,256,400.065z"/>
<path d="M148.706,307.596l-13.508,6.523c10.436,21.607,26.528,40.09,46.537,53.451l8.331-12.476
	C172.281,343.219,157.979,326.794,148.706,307.596z"/>
<g>
	<path style="fill:#FFFFFF;" d="M344.471,176.406l11.147-10.04c-21.026-23.347-49.617-38.644-80.504-43.071l-2.129,14.849
		C300.402,142.076,325.79,155.664,344.471,176.406z"/>
	<path style="fill:#FFFFFF;" d="M263.623,137.178l0.95-14.972c-5.238-0.331-10.604-0.356-15.871-0.074l0.808,14.98
		C254.192,136.858,258.966,136.883,263.623,137.178z"/>
	<path style="fill:#FFFFFF;" d="M240.144,137.988l-1.985-14.868c-5.233,0.698-10.48,1.721-15.592,3.037l3.74,14.526
		C230.844,139.515,235.5,138.609,240.144,137.988z"/>
	<rect x="324.703" y="221.486" style="fill:#FFFFFF;" width="15.001" height="15.001"/>
	<rect x="296.191" y="221.486" style="fill:#FFFFFF;" width="18.507" height="15.001"/>
	<rect x="349.705" y="221.486" style="fill:#FFFFFF;" width="15.001" height="15.001"/>
	<path style="fill:#FFFFFF;" d="M175.987,263.12c-4.547,1.648-9.329,2.484-14.21,2.484v15.001c6.63,0,13.131-1.138,19.322-3.383
		L175.987,263.12z"/>
	<path style="fill:#FFFFFF;" d="M204.585,261.119l-11.299-9.868c-2.803,3.21-6.062,5.966-9.685,8.193l7.855,12.78
		C196.369,269.206,200.786,265.47,204.585,261.119z"/>
	<path style="fill:#FFFFFF;" d="M217.362,235.644l-14.671-3.131c-0.885,4.146-2.399,8.127-4.5,11.829l13.047,7.405
		C214.096,246.709,216.156,241.292,217.362,235.644z"/>
</g>
<polygon points="187.358,44.713 232.111,90.659 242.857,80.192 176.875,12.454 163.306,106.086 178.153,108.237 "/>
<polygon points="106.14,182.221 76.303,125.409 139.629,136.272 142.165,121.488 48.897,105.487 92.86,189.196 "/>
<polygon points="427.273,297.852 512,256 427.273,214.148 420.63,227.599 478.128,256 420.63,284.401 "/>
<polygon points="435.697,125.409 405.86,182.221 419.14,189.195 463.103,105.487 369.835,121.488 372.371,136.272 "/>
<polygon points="324.642,44.713 333.847,108.237 348.693,106.086 335.124,12.454 269.143,80.192 279.889,90.659 "/>
<polygon points="405.86,329.778 435.697,386.591 372.371,375.728 369.835,390.512 463.103,406.513 419.14,322.804 "/>
<polygon points="91.37,284.401 33.872,256 91.37,227.599 84.727,214.148 0,256 84.727,297.852 "/>
<polygon points="324.642,467.286 279.889,421.341 269.143,431.808 335.125,499.546 348.693,405.914 333.847,403.763 "/>
<polygon points="76.303,386.591 106.14,329.779 92.86,322.805 48.897,406.513 142.165,390.512 139.629,375.728 "/>
<polygon points="187.358,467.286 178.153,403.763 163.306,405.914 176.876,499.546 242.857,431.808 232.111,421.341 "/>
<g>
</g>
<g>
</g>
<g>
</g>
<g>
</g>
<g>
</g>
<g>
</g>
<g>
</g>
<g>
</g>
<g>
</g>
<g>
</g>
<g>
</g>
<g>
</g>
<g>
</g>
<g>
</g>
<g>
</g>
</svg>
